<?xml version="1.0" encoding="UTF-8" standalone="no"?>
<svg
   xmlns:cc="http://creativecommons.org/ns#"
   xmlns:rdf="http://www.w3.org/1999/02/22-rdf-syntax-ns#"
   xmlns:svg="http://www.w3.org/2000/svg"
   xmlns="http://www.w3.org/2000/svg"
   xmlns:sodipodi="http://sodipodi.sourceforge.net/DTD/sodipodi-0.dtd"
   xmlns:inkscape="http://www.inkscape.org/namespaces/inkscape"
   width="41"
   height="24"
   viewBox="0 0 41 24"
   id="svg2"
   version="1.1"
   inkscape:version="0.91 r13725"
   sodipodi:docname="gr.svg">
  <g
     inkscape:label="Layer 1"
     inkscape:groupmode="layer"
     id="layer1"
     transform="translate(0,-1028.3622)">
    <path
       inkscape:connector-curvature="0"
       id="path3341"
       d="m 12.828514,1039.6109 c 0,4.4618 3.358586,7.8202 7.820362,7.8202 4.955568,0 8.76821,-5.0865 7.107238,-10.0906 -0.243843,-0.7344 -0.569912,-1.2251 -0.899082,-1.8407 0.755787,0.061 3.081201,1.4354 3.785207,1.856 0.551679,0.3291 1.124604,0.7832 1.630524,1.1946 0.195075,0.1615 1.438548,1.2281 1.438548,1.3836 -2.261423,13.2298 -24.021883,13.1384 -26.4448427,0 0,-0.2316 1.7920637,-1.6609 2.221778,-1.9687 l 2.6423687,-1.6335 c 0.393157,-0.1982 1.572553,-0.7985 1.987041,-0.832 -0.310846,0.5881 -0.652139,1.1063 -0.877748,1.7828 -0.219416,0.6583 -0.411394,1.4629 -0.411394,2.3283 z m -7.1742684,2.1761 c 4.2058273,13.251 25.5914514,14.0068 29.6692684,0 0.713126,0.8229 1.337915,2.1882 3.227507,1.8591 2.002353,-0.3506 3.123862,-2.4992 1.508563,-4.6599 -0.65825,-0.8776 -1.633538,-2.1242 -2.41676,-2.9044 -0.707103,-0.7009 -1.947479,-1.8377 -2.8039,-2.438 -1.971818,-1.3806 -2.724594,-1.8591 -5.080457,-2.9013 -4.254572,-1.8773 -9.770937,-2.3833 -14.494875,-1.274 -4.534971,1.0636 -7.0950072,2.5631 -10.5084191,5.2937 -0.2651485,0.2104 -0.377909,0.3749 -0.6796304,0.6096 -0.2712487,0.2072 -0.4236347,0.3962 -0.6583075,0.6309 -0.8807809,0.8746 -1.6823217,1.9077 -2.42900846,2.8922 -0.39924651,0.5302 -0.7405875,0.9843 -0.83506501,1.8316 -0.28953074,2.566 3.08730817,4.1722 4.90373087,1.8347 l 0.4114372,-0.5548 c 0.070097,-0.088 0.1249599,-0.1524 0.185916,-0.2194 z m 17.9905054,2.7094 c -2.861784,1.6517 -6.519005,0.6734 -8.170861,-2.1883 -1.173371,-2.0358 -1.017949,-4.4708 0.198086,-6.3054 -0.560709,1.5939 -0.451045,3.4102 0.457152,4.9858 1.654953,2.8617 5.312174,3.843 8.173958,2.1913 0.828982,-0.4785 1.496433,-1.1246 1.993149,-1.8682 -0.460163,1.2953 -1.365349,2.4442 -2.651484,3.1848 z"
       style="fill:#221f20;fill-opacity:1;fill-rule:evenodd;stroke:none" />
  </g>
</svg>
