<?xml version="1.0" encoding="UTF-8"?>
<!DOCTYPE svg PUBLIC "-//W3C//DTD SVG 1.1//EN" "http://www.w3.org/Graphics/SVG/1.1/DTD/svg11.dtd">
<svg xmlns="http://www.w3.org/2000/svg" xml:space="preserve" width="67.6312mm" height="14.9968mm" version="1.1" style="shape-rendering:geometricPrecision; text-rendering:geometricPrecision; image-rendering:optimizeQuality; fill-rule:evenodd; clip-rule:evenodd"
viewBox="0 0 6763 1500"
 xmlns:xlink="http://www.w3.org/1999/xlink">
 <defs>
  <style type="text/css">
   <![CDATA[
    .fil0 {fill:#E21F26;fill-rule:nonzero}
   ]]>
  </style>
 </defs>
 <g id="Camada_x0020_1">
  <metadata id="ID0"/>
  <g id="_263457080">
   <polygon class="fil0" points="3016,636 2926,296 2716,296 2716,887 2851,887 2851,443 2955,887 3076,887 3180,443 3181,887 3316,887 3316,296 3106,296 "/>
   <polygon class="fil0" points="4996,606 4801,296 4636,296 4636,887 4801,887 4801,576 4995,887 5161,887 5161,296 4996,296 "/>
   <polygon class="fil0" points="6495,739 6495,650 6706,650 6706,535 6495,535 6495,443 6751,443 6751,296 6330,296 6330,887 6751,887 6751,739 "/>
   <polygon class="fil0" points="6016,296 5866,296 5866,887 6241,887 6241,739 6016,739 "/>
   <path class="fil0" d="M1921 629c58,-53 75,-83 76,-157 2,-102 -55,-161 -135,-174 -15,-2 -48,-2 -48,-2l-314 0 0 591 150 0 0 -488 150 0c79,0 86,177 0,177l-105 0 0 104 105 0c36,0 90,15 91,207l149 0c0,-192 -62,-235 -119,-258z"/>
   <path class="fil0" d="M5513 279c-154,0 -278,140 -278,312 0,172 124,312 278,312 153,0 278,-140 278,-312 0,-172 -125,-312 -278,-312zm0 467c-68,0 -124,-69 -124,-155 0,-85 56,-154 124,-154 68,0 123,69 123,154 0,86 -55,155 -123,155z"/>
   <path class="fil0" d="M2355 279c-153,0 -278,140 -278,312 0,172 125,312 278,312 154,0 279,-140 279,-312 0,-172 -125,-312 -279,-312zm0 467c-68,0 -123,-69 -123,-155 0,-85 55,-154 123,-154 69,0 124,69 124,154 0,86 -55,155 -124,155z"/>
   <path class="fil0" d="M4295 543l0 137 100 0c-22,38 -58,63 -99,63 -68,0 -124,-69 -124,-154 0,-85 56,-154 124,-154 35,0 67,19 90,49l154 -41c-46,-98 -138,-165 -244,-165 -153,0 -278,139 -278,311 0,172 125,311 278,311 125,0 230,-93 265,-220l0 -137 -266 0z"/>
   <path class="fil0" d="M3786 296l-190 0 -205 591 165 0 21 -72 228 0 21 72 165 0 -205 -591zm-173 399l78 -266 79 266 -157 0z"/>
   <path class="fil0" d="M826 629c58,-53 74,-83 76,-157 2,-102 -55,-161 -135,-174 -15,-2 -48,-2 -48,-2l-314 0 0 591 150 0 0 -488 150 0c79,0 85,177 0,177l-105 0 0 104 105 0c36,0 90,15 90,207l150 0c0,-192 -62,-235 -119,-258z"/>
   <path class="fil0" d="M999 360l12 -8 -100 -175 -199 0 0 15 191 0c3,6 47,83 96,168zm-660 -8l13 8 95 -168 192 0 0 -15 -200 0 -100 175zm672 478l-12 -7 -96 167 -191 0 0 15 199 0 100 -175zm-614 -727l242 0 0 45 -217 0 -108 189 -38 -22 121 -212zm640 234c-52,-89 -99,-172 -109,-189l-216 0 0 -45 242 0c6,12 61,108 121,212l-38 22zm11 429l100 -175 -100 -175 -13 8c49,84 92,161 96,167l-96 168 13 7zm-696 57l-13 7 100 175 200 0 0 -15 -192 0 -95 -167zm848 -495l150 263 -150 264 -64 -37 130 -227c-16,-27 -71,-124 -130,-226l64 -37zm-898 88l-99 175 99 175 13 -7 -96 -168 96 -167 -13 -8zm798 -115c-59,-103 -114,-200 -129,-227l-259 0 0 -74 301 0 150 264 -63 37zm-913 -37l151 -264 301 0 0 74 -259 0 -130 227 -63 -37zm63 618c59,103 114,199 130,226l259 0 0 74 -301 0 -151 -263 63 -37zm-166 -291c16,28 71,124 130,227l-63 37 -151 -264 151 -263 63 37 -130 226zm887 517l129 -226 63 37 -150 263 -301 0 0 -74 259 0zm-853 -517l121 -212 38 22 -108 190 108 190 -38 22c-59,-104 -114,-200 -121,-212zm196 254l108 189 217 0 0 45 -242 0c-7,-12 -62,-108 -121,-212l38 -22zm640 234l-242 0 0 -45c103,0 198,0 216,1l109 -190 38 22 -121 212zm278 -488l-121 212 -38 -22 109 -190c-9,-16 -57,-99 -109,-190l38 -22c59,104 114,200 121,212z"/>
   <path class="fil0" d="M1489 1493l164 0 0 -22 -140 0 0 -101 126 0 0 -22 -126 0 0 -92 134 0 0 -22 -158 0 0 259zm228 0l24 0 0 -227 1 0 158 227 31 0 0 -259 -24 0 0 227 -1 0 -158 -227 -31 0 0 259zm296 0l164 0 0 -22 -140 0 0 -101 126 0 0 -22 -126 0 0 -92 135 0 0 -22 -159 0 0 259zm228 0l24 0 0 -123 45 0 73 123 28 0 -76 -125c7,-1 15,-2 23,-5 7,-2 15,-6 21,-11 7,-5 12,-11 16,-19 5,-8 7,-19 7,-31 0,-11 -2,-21 -6,-29 -4,-8 -8,-14 -14,-19 -5,-5 -12,-9 -19,-12 -7,-3 -14,-5 -21,-6 -6,-1 -13,-2 -19,-2 -6,0 -10,0 -14,0l-68 0 0 259zm24 -237l52 0c12,0 23,1 31,4 8,4 14,7 18,12 5,5 8,10 9,15 2,6 2,10 2,15 0,4 0,9 -2,14 -1,6 -4,11 -9,15 -4,5 -10,9 -18,12 -8,3 -19,5 -31,5l-52 0 0 -92zm418 97l-86 0 0 22 62 0 0 87c-10,6 -21,10 -33,12 -12,3 -25,4 -39,4 -17,0 -32,-3 -46,-9 -13,-6 -25,-14 -35,-24 -9,-11 -16,-23 -21,-37 -6,-14 -8,-29 -8,-45 0,-16 2,-31 8,-45 5,-14 12,-26 21,-36 10,-10 22,-18 35,-24 14,-6 29,-9 46,-9 7,0 14,1 21,2 8,2 15,4 21,7 7,3 13,6 19,10 6,4 11,9 15,13l17 -18c-24,-24 -55,-36 -93,-36 -20,0 -38,3 -55,10 -16,7 -30,17 -42,29 -12,12 -21,26 -28,43 -6,16 -9,35 -9,54 0,20 3,38 9,55 7,17 16,31 28,43 12,12 26,22 42,29 17,6 35,10 55,10 17,0 33,-2 49,-6 17,-3 32,-9 47,-18l0 -123zm83 140l24 0 0 -259 -24 0 0 259zm255 -91l-119 0 61 -142 58 142zm-183 91l25 0 30 -69 137 0 28 69 27 0 -109 -259 -25 0 -113 259zm417 -177c5,-13 12,-25 21,-35 9,-10 20,-18 34,-24 13,-5 28,-8 45,-8 17,0 32,3 45,8 13,6 25,14 34,24 9,10 16,22 21,35 5,14 7,28 7,44 0,14 -2,28 -7,42 -4,13 -11,25 -20,35 -8,10 -19,19 -32,25 -13,6 -28,9 -44,9 -17,0 -32,-3 -45,-9 -14,-6 -25,-13 -35,-23 -10,-11 -18,-22 -23,-36 -6,-13 -9,-28 -9,-43 0,-16 3,-30 8,-44zm247 155l-81 0 0 -1c10,-4 20,-9 28,-17 8,-8 14,-17 20,-27 6,-10 10,-20 13,-32 3,-11 4,-22 4,-34 0,-19 -3,-36 -9,-53 -6,-16 -15,-30 -26,-42 -12,-12 -26,-21 -42,-28 -16,-7 -34,-10 -54,-10 -20,0 -38,3 -55,10 -16,7 -30,16 -41,28 -11,12 -20,26 -26,42 -7,17 -10,34 -10,53 0,20 4,38 11,55 8,16 18,30 30,42 13,11 27,20 44,27 16,6 33,9 51,9l143 0 0 -22zm239 -237l-24 0 0 154c0,9 -1,19 -3,29 -2,11 -5,21 -10,30 -5,9 -12,16 -21,22 -9,6 -22,9 -37,9 -15,0 -27,-3 -36,-9 -9,-6 -16,-13 -21,-22 -5,-9 -9,-19 -10,-30 -2,-10 -3,-20 -3,-29l0 -154 -24 0 0 160c0,14 1,27 5,40 3,12 8,24 16,33 7,10 17,18 29,24 12,6 27,9 44,9 18,0 33,-3 45,-9 12,-6 22,-14 29,-24 8,-9 13,-21 16,-33 3,-13 5,-26 5,-40l0 -160zm77 259l165 0 0 -22 -141 0 0 -101 127 0 0 -22 -127 0 0 -92 135 0 0 -22 -159 0 0 259zm392 0l24 0 0 -237 89 0 0 -22 -201 0 0 22 88 0 0 237zm164 0l24 0 0 -123 45 0 73 123 28 0 -76 -125c7,-1 15,-2 23,-5 7,-2 15,-6 21,-11 7,-5 12,-11 16,-19 4,-8 7,-19 7,-31 0,-11 -2,-21 -6,-29 -4,-8 -8,-14 -14,-19 -5,-5 -12,-9 -19,-12 -7,-3 -14,-5 -21,-6 -7,-1 -13,-2 -19,-2 -6,0 -10,0 -14,0l-68 0 0 259zm24 -237l52 0c12,0 23,1 31,4 7,4 14,7 18,12 4,5 7,10 9,15 2,6 2,10 2,15 0,4 0,9 -2,14 -2,6 -5,11 -9,15 -4,5 -11,9 -18,12 -8,3 -19,5 -31,5l-52 0 0 -92zm354 146l-119 0 60 -142 59 142zm-183 91l25 0 29 -69 138 0 28 69 27 0 -109 -259 -25 0 -113 259zm295 0l24 0 0 -227 1 0 158 227 31 0 0 -259 -24 0 0 227 -1 0 -157 -227 -32 0 0 259zm280 -33c11,15 23,25 37,31 15,6 30,9 48,9 10,0 20,-2 30,-5 10,-3 18,-8 26,-14 7,-6 13,-14 18,-23 4,-9 6,-19 6,-31 0,-16 -3,-29 -10,-38 -6,-9 -15,-16 -24,-22 -10,-5 -21,-9 -33,-12 -11,-3 -22,-6 -32,-11 -10,-4 -18,-9 -25,-16 -6,-7 -10,-17 -10,-30 0,-8 2,-15 5,-21 3,-7 8,-12 13,-16 5,-4 11,-7 18,-9 7,-2 15,-3 23,-3 11,0 21,2 29,6 8,5 15,11 21,20l21 -15c-9,-12 -19,-20 -31,-25 -12,-5 -25,-8 -40,-8 -11,0 -21,2 -31,5 -10,3 -19,7 -27,13 -7,6 -13,14 -18,23 -5,9 -7,19 -7,30 0,12 2,23 6,31 4,8 9,15 15,21 6,5 14,10 22,13 7,3 16,6 24,9 9,3 17,6 25,8 8,3 15,6 21,10 6,4 11,9 15,14 4,6 6,14 6,23 0,8 -2,15 -5,21 -3,6 -7,11 -12,16 -5,4 -11,8 -19,10 -7,2 -14,4 -22,4 -13,0 -25,-3 -35,-8 -10,-6 -18,-14 -25,-25l-23 15zm231 33l24 0 0 -123 122 0 0 -22 -122 0 0 -92 132 0 0 -22 -156 0 0 259zm230 -175c5,-14 12,-26 22,-36 9,-10 21,-18 35,-24 13,-6 28,-9 45,-9 17,0 32,3 46,9 13,6 25,14 34,24 10,10 17,22 22,36 5,14 8,29 8,45 0,16 -3,31 -8,45 -5,14 -12,26 -22,37 -9,10 -21,18 -34,24 -14,6 -29,9 -46,9 -17,0 -32,-3 -45,-9 -14,-6 -26,-14 -35,-24 -10,-11 -17,-23 -22,-37 -5,-14 -8,-29 -8,-45 0,-16 3,-31 8,-45zm-22 100c6,17 16,31 27,43 12,12 26,22 43,29 16,6 34,10 54,10 20,0 38,-4 54,-10 17,-7 31,-17 43,-29 12,-12 21,-26 27,-43 7,-17 10,-35 10,-55 0,-19 -3,-38 -10,-54 -6,-17 -15,-31 -27,-43 -12,-12 -26,-22 -43,-29 -16,-7 -34,-10 -54,-10 -20,0 -38,3 -54,10 -17,7 -31,17 -43,29 -11,12 -21,26 -27,43 -7,16 -10,35 -10,54 0,20 3,38 10,55zm323 75l25 0 0 -123 45 0 73 123 27 0 -75 -125c7,-1 14,-2 22,-5 8,-2 15,-6 21,-11 7,-5 12,-11 16,-19 5,-8 7,-19 7,-31 0,-11 -2,-21 -6,-29 -3,-8 -8,-14 -13,-19 -6,-5 -12,-9 -20,-12 -7,-3 -14,-5 -20,-6 -7,-1 -14,-2 -19,-2 -6,0 -11,0 -14,0l-69 0 0 259zm25 -237l51 0c13,0 23,1 31,4 8,4 14,7 18,12 5,5 8,10 9,15 2,6 3,10 3,15 0,4 -1,9 -3,14 -1,6 -4,11 -9,15 -4,5 -10,9 -18,12 -8,3 -18,5 -31,5l-51 0 0 -92zm201 237l24 0 0 -229 1 0 100 229 11 0 99 -229 1 0 0 229 24 0 0 -259 -34 0 -95 217 -95 -217 -36 0 0 259zm489 -91l-119 0 60 -142 59 142zm-183 91l25 0 29 -69 138 0 28 69 27 0 -109 -259 -25 0 -113 259zm295 -3c3,4 8,5 13,5 4,0 8,-1 12,-5 3,-3 5,-7 5,-12 0,-5 -2,-9 -5,-13 -4,-3 -8,-5 -12,-5 -5,0 -10,2 -13,5 -3,4 -5,8 -5,13 0,5 2,9 5,12z"/>
  </g>
 </g>
</svg>
